<?xml version="1.0" encoding="utf-8"?>
<!-- Generator: Adobe Illustrator 21.0.0, SVG Export Plug-In . SVG Version: 6.00 Build 0)  -->
<svg version="1.1" id="Слой_1" xmlns="http://www.w3.org/2000/svg" xmlns:xlink="http://www.w3.org/1999/xlink" x="0px" y="0px"
	 viewBox="0 0 690 500" style="enable-background:new 0 0 690 500;" xml:space="preserve">
<style type="text/css">
	.st0{filter:url(#Adobe_OpacityMaskFilter);}
	.st1{filter:url(#Adobe_OpacityMaskFilter_1_);}
	.st2{mask:url(#SVGID_1_);fill:url(#SVGID_2_);}
	.st3{opacity:0.72;fill:url(#SVGID_3_);}
	.st4{fill:#4A3E46;}
	.st5{fill:#B07042;}
	.st6{fill:#EEA886;}
	.st7{fill:#CF8C6C;}
	.st8{fill:#D88A51;}
	.st9{fill:#EB4747;}
	.st10{fill:#DB9C7C;}
	.st11{fill:#BD7947;}
	.st12{fill:#EDDAD3;}
	.st13{fill:#1D3B54;}
	.st14{fill:#A77860;}
	.st15{fill:#6B5A65;}
	.st16{filter:url(#Adobe_OpacityMaskFilter_2_);}
	.st17{filter:url(#Adobe_OpacityMaskFilter_3_);}
	.st18{mask:url(#SVGID_4_);fill:url(#SVGID_5_);}
	.st19{opacity:0.72;fill:url(#SVGID_6_);}
	.st20{fill:#FFD255;}
	.st21{fill:#FFD078;}
	.st22{fill:#FFFFFF;}
	.st23{fill:url(#SVGID_7_);}
	.st24{fill:#FFD179;}
	.st25{fill:#FFD887;}
	.st26{fill:#FFD989;}
	.st27{fill:#FFD785;}
	.st28{opacity:8.000000e-02;fill:url(#SVGID_8_);}
	.st29{filter:url(#Adobe_OpacityMaskFilter_4_);}
	.st30{filter:url(#Adobe_OpacityMaskFilter_5_);}
	.st31{mask:url(#SVGID_9_);fill:url(#SVGID_10_);}
	.st32{fill:url(#SVGID_11_);}
	.st33{filter:url(#Adobe_OpacityMaskFilter_6_);}
	.st34{filter:url(#Adobe_OpacityMaskFilter_7_);}
	.st35{mask:url(#SVGID_12_);fill:url(#SVGID_13_);}
	.st36{fill:url(#SVGID_14_);}
	.st37{filter:url(#Adobe_OpacityMaskFilter_8_);}
	.st38{filter:url(#Adobe_OpacityMaskFilter_9_);}
	.st39{mask:url(#SVGID_15_);fill:url(#SVGID_16_);}
	.st40{fill:url(#SVGID_17_);}
	.st41{fill:#D46946;}
	.st42{fill:url(#SVGID_18_);}
	.st43{fill:url(#SVGID_19_);}
	.st44{fill:url(#SVGID_20_);}
	.st45{fill:#706865;}
	.st46{fill:#BDAFAA;}
	.st47{fill:#B5DEFF;}
	.st48{fill:#FFC655;}
	.st49{fill:#4DA8F2;}
	.st50{fill:#EFAA88;}
	.st51{fill:#424773;}
	.st52{fill:#292C47;}
	.st53{fill:#E2D2CA;}
	.st54{fill:#DFE1E8;}
	.st55{fill:#518AFA;}
	.st56{fill:#202338;}
	.st57{fill:#323657;}
	.st58{fill:#E2E3ED;}
	.st59{fill:#AAB1E0;}
	.st60{fill:#81807E;}
	.st61{fill:#DBD8E3;}
	.st62{fill:#1D2033;}
	.st63{fill:#434343;}
	.st64{fill:#EEA987;}
	.st65{fill:#5282FC;}
	.st66{fill:#C4C1CC;}
	.st67{fill:#5C5049;}
	.st68{fill:#FAB46C;}
	.st69{fill:#FCCCA2;}
	.st70{fill:#D4C3BD;}
	.st71{fill:#DE9673;}
	.st72{fill:#1B4D8F;}
	.st73{fill:#E6D3CC;}
	.st74{fill:#DED1C5;}
	.st75{fill:#BC8551;}
	.st76{fill:#23344A;}
	.st77{fill:#807066;}
	.st78{fill:#E64053;}
	.st79{fill:#5F8CC9;}
	.st80{fill:#3A3F47;}
	.st81{fill:#A32D3B;}
	.st82{fill:#5E5853;}
	.st83{fill:#91887F;}
	.st84{fill:#6E6760;}
</style>
<g>
	<g>
		<defs>
			<filter id="Adobe_OpacityMaskFilter" filterUnits="userSpaceOnUse" x="406.2" y="423.6" width="192.3" height="11.6">
				<feFlood  style="flood-color:white;flood-opacity:1" result="back"/>
				<feBlend  in="SourceGraphic" in2="back" mode="normal"/>
			</filter>
		</defs>
		<mask maskUnits="userSpaceOnUse" x="406.2" y="423.6" width="192.3" height="11.6" id="SVGID_1_">
			<g class="st0">
				<defs>
					<filter id="Adobe_OpacityMaskFilter_1_" filterUnits="userSpaceOnUse" x="406.2" y="423.6" width="192.3" height="11.6">
						<feFlood  style="flood-color:white;flood-opacity:1" result="back"/>
						<feBlend  in="SourceGraphic" in2="back" mode="normal"/>
					</filter>
				</defs>
				<mask maskUnits="userSpaceOnUse" x="406.2" y="423.6" width="192.3" height="11.6" id="SVGID_1_">
					<g class="st1">
					</g>
				</mask>
				<linearGradient id="SVGID_2_" gradientUnits="userSpaceOnUse" x1="521.264" y1="461.8729" x2="484.3527" y2="398.4478">
					<stop  offset="0" style="stop-color:#000000"/>
					<stop  offset="0.6943" style="stop-color:#FFFFFF"/>
				</linearGradient>
				<ellipse class="st2" cx="502.3" cy="429.4" rx="96.1" ry="5.8"/>
			</g>
		</mask>
		<linearGradient id="SVGID_3_" gradientUnits="userSpaceOnUse" x1="521.264" y1="461.8729" x2="484.3527" y2="398.4478">
			<stop  offset="0" style="stop-color:#97CBEC"/>
			<stop  offset="0.6943" style="stop-color:#CCC2F5"/>
		</linearGradient>
		<ellipse class="st3" cx="502.3" cy="429.4" rx="96.1" ry="5.8"/>
		<g>
			<circle class="st4" cx="531" cy="420.1" r="2.1"/>
			<polygon class="st4" points="575.2,418.1 574.7,419.5 552.7,412.7 553.7,409.8 			"/>
			
				<rect x="551.9" y="385.1" transform="matrix(-1 -1.224647e-16 1.224647e-16 -1 1106.3701 796.8253)" class="st4" width="2.5" height="26.5"/>
			<polygon class="st4" points="531,418.1 531.5,419.5 553.5,412.7 552.5,409.6 			"/>
			<polygon class="st4" points="546.5,419.4 546.5,421.1 553.5,412.7 552.5,409.6 			"/>
			<circle class="st4" cx="548.4" cy="420.1" r="2.1"/>
			<path class="st5" d="M521.8,413c0,0,0,1.4-0.5,3c-0.3,1.2-1,5.8-1.8,6.4c-0.9,0.6-3.6,2.4-3.2,4.1c0.4,1.8,0.7,3,3.7,1.9
				c3-1,4.9-1.6,5.5-4.2c0.6-2.6,2.2-5,2.2-5l2.1,5.3l1.1-0.5c0,0-1.7-5.8-1.6-6.3c0.1-0.5-0.8-5.1-4.4-6.2
				C521.5,410.5,521.8,413,521.8,413z"/>
			<path class="st5" d="M502,414.6c0,0-0.5,1.3-1.6,2.6c-0.8,1-3.1,5-4.1,5.3c-1,0.3-4.2,0.8-4.5,2.6c-0.3,1.8-0.4,3,2.7,3.2
				c3.1,0.1,5.2,0.3,6.7-1.9c1.5-2.2,3.9-3.8,3.9-3.8v5.7h1.2c0,0,0.6-6,0.9-6.4c0.3-0.4,1.2-5-1.7-7.4
				C502.6,412.3,502,414.6,502,414.6z"/>
			<path class="st6" d="M533.9,336.6c0,0-0.7-2.5-0.8-2.8c-0.1-0.3-0.7-1-1.6-1.6c-0.8-0.7-2.2-1.2-2.4-1.2c-0.2,0.1-0.4,0-0.7,0.4
				c-0.3,0.4-0.3,0.8-0.3,0.8s-0.6,0.3-0.6,0.9c0,0-0.5,0.3-0.4,1c0,0-0.5,0.3-0.4,0.8c0,0,0.7,0.6,0.8,1c0.2,0.3,1.6,1.6,3.2,2.5
				C530.9,338.4,532.9,339.9,533.9,336.6z"/>
			<path class="st7" d="M530.9,334.7c0,0-0.3,1-0.2,1.4c0.1,0.3-2.4,0.4-2.4,0.4S529.6,334.3,530.9,334.7z"/>
			<path class="st8" d="M558.4,340.9c-1-1.6-2.3-2.3-6.5,0.6s-3.2,2.3-4.2,3.2c-1,0.9-5.4,3.2-5.4,3.2s-2.6-2.5-3.8-4.3
				c-1.4-2-4.3-7.5-4.3-7.5l-4,3c0,0,7.9,14.3,9.5,15.3c1.6,1.1,6.6-0.7,9.2-1.8c2.6-1.1,5.3-2.5,6.5-2.8
				C556.5,349.5,560.9,345,558.4,340.9z"/>
			
				<rect x="528.9" y="324.3" transform="matrix(0.9764 -0.216 0.216 0.9764 -58.5391 122.0939)" class="st9" width="0.8" height="9.1"/>
			<path class="st10" d="M529.4,331.2c0,0,2,1.7,1.8,2.1c-0.2,0.4-0.5,0.4-0.5,0.4l0.5,1.1c0,0-0.1,0.9-1.1,0.6c0,0,0,0.9-0.9,0.4
				c0,0-0.2,0.6-0.7,0.4c-0.5-0.1-1.7-1.3-1.7-1.3s-0.2-0.4,0.4-0.8c0,0-0.1-0.6,0.4-1c0,0,0-0.5,0.6-0.9c0,0,0.1-1.1,1-1.2
				C529.2,331.1,529.3,331.1,529.4,331.2z"/>
			<path class="st6" d="M533.1,333.9c0,0-1.4-1.2-2.4-1.6c-0.2-0.1-0.5-0.1-0.6,0.1c-0.2,0.2-0.1,0.7,0.5,1.2c0.6,0.6,1,1.6,1,1.6
				S532.3,335.6,533.1,333.9z"/>
			<path class="st11" d="M538.9,349.5c0,0-0.8-3,0.1-5.3c0,0-0.4,2.4,0.7,4.1C540.5,349.6,538.9,349.5,538.9,349.5z"/>
			<path class="st12" d="M524,350c0,0-2.2-16.3-6-23.4h5.6c0,0,6.3,11.2,5.1,22.4L524,350z"/>
			<path class="st6" d="M522.6,337.8c0,0-0.6-1.2-0.8-1.6c-0.2-0.4-0.8,0.3-0.7,0.8C521.2,337.5,522.6,337.8,522.6,337.8z"/>
			<path class="st6" d="M517.6,340.5c0,0,0.2,0.6,0.4,0.8c0,0,0.4,0.4,0.7,0.7c0.1,0.1,0.2,0.2,0.2,0.2c0.2,0.2,0.5,0.8,1,1.3
				c0.6,0.5,2.7,1.9,2.7,1.9l1.5-1.6l1.2-1.3c0,0-1-3.9-1.5-4.4c0,0-0.1-0.1-0.1-0.1c-0.4-0.4-0.9-0.5-1.2-0.6
				c-0.1-0.1-1.1-0.6-1.4-0.5c-0.4,0.2-0.7,0.5-0.7,0.8c0,0-0.8,0.4-1.1,0.9c0,0-0.8,0.3-0.9,1.1C518.4,339.6,517.6,340,517.6,340.5
				z"/>
			<path class="st6" d="M507.6,382.7c0,0,3.7,8.4,6.4,14.4c0.4,1,0.9,1.9,1.2,2.8c0.4,1,0.8,1.8,1,2.3c1.7,3.8,5.9,12.1,5.9,12.1
				s3.1,0.1,3.3-2.5c0,0-3-5.8-3-9.8c0-4.1-0.5-16-4.4-18.6C513.3,380.2,510.2,379.6,507.6,382.7z"/>
			<path class="st6" d="M542.1,366.7c0,0-0.8,0.8-1.5,1c-0.7,0.2-11.8,1-17,2.7c-5.1,1.7-12,2.8-13.3,4.2c-1.3,1.5-3.4,9.5-3.3,11
				c0.1,1.5-4.5,27-5.1,29c-0.3,1.1,4.1,0.7,4.1,0.7s6.3-15.1,7.7-17.9c2.5-5.1,2.6-11.4,3.5-12.4c0.9-1,11-3.2,16.8-3.2
				c5.8,0,18.8,0.5,20.2-0.3c1.4-0.8,10.1-6.5,6.5-14.2C557.3,359.7,542.1,366.7,542.1,366.7z"/>
			<path class="st13" d="M517,372.3l9.2,17.7c0,0,2.8-6.6,7.6-7.7c4.8-1.1,24.2-0.5,24.2-0.5s8.9-11.2,1.3-17.1
				c-7.6-5.9-16.5,0.9-16.5,0.9s-1.8,2-2.7,2C539.2,367.6,532.1,367.4,517,372.3z"/>
			<path class="st6" d="M496.3,422.6c0,0,2.8,0.7,3.9,0c1.1-0.7,4.7-6.9,6-7.3c0,0-1.2-2.4-4.1-0.7
				C502,414.6,497.1,421.5,496.3,422.6z"/>
			<path class="st6" d="M519.5,422.4c0,0,2.9-0.4,3.6-1.4c0.7-1.1,1.8-8.2,2.8-9c0,0-2-1.8-4.1,0.9
				C521.8,413,519.8,421.2,519.5,422.4z"/>
			<circle class="st4" cx="575.2" cy="420.1" r="2.1"/>
			<path class="st6" d="M548.8,311c-2.2-0.1-7.1,1-7.9,6.9c0,0,0.2,1.6,0.6,2.8c0.4,1.2-0.7,4.9-0.4,5.1c0.3,0.2,1.5,0.4,1.5,0.4
				s1.3,4,2.7,4c1.4,0,6.7-1.1,9.2-6.1C557,319,557.7,311.4,548.8,311z"/>
			<path class="st6" d="M547.1,328.3c0,0,0.2,0.6,0.4,1.4c0.1,0.4,0.2,0.9,0.3,1.5c0.3,1.5,0.4,3.2,0,4.3c0,0,3.1,1.1,5.6-3.3
				c0,0-1.1-4.7,0.3-7.6C555.1,321.7,547.1,328.3,547.1,328.3z"/>
			<path class="st13" d="M540.9,317.8c0,0,3.4,3.1,7,2.8c3.7-0.2,6,4.3,6,4.3s5.4-6.8,1.1-12.3C550.6,307.1,540.1,311,540.9,317.8z"
				/>
			<path class="st6" d="M549.6,320.6c0-0.7,0.8-1.7,1.9-0.8c1.1,0.9-0.4,4.2-1.3,3.9C549.2,323.4,549.5,321.3,549.6,320.6z"/>
			<path class="st14" d="M547.5,329.7c0.1,0.4,0.2,0.9,0.3,1.5c2.9-1.8,4.3-4.1,4.3-4.1C550.5,328.6,547.5,329.7,547.5,329.7z"/>
			<path class="st8" d="M539.1,346.5c0.7,3,2.4,3.2,2.3,5.4c-0.1,2.2-0.8,2.4,0.4,6c0.2,0.7,0.4,1.4,0.5,2.1c0,0.1,0,0.2,0,0.3
				c0.1,0.4,0.1,0.8,0.2,1.2c0.1,0.8,0.2,1.5,0.2,2.2c0.1,1.7-1.1,3.1-1.1,3.1s11.3,6.8,19.1,5.8c0,0-2-8.5-3.1-11.4
				c-1.1-2.9-0.8-16.4,0-19.2c1.2-4.3-1.2-10.6-4.5-11.5l-5.1,2.4c0,0-5.1,6.1-6.3,7.1C540.6,340.8,538.4,343.4,539.1,346.5z"/>
			<path class="st8" d="M555.9,334.1c-1.4-1.2-3.5-3.3-6.6,0.8c-3,4.1-5.3,6.7-5.9,7.9c-0.7,1.2-6.4,9.4-6.4,9.4s-3-2.8-4.8-4.1
				c-2-1.5-7.3-7.1-7.3-7.1l-3.5,3.9c0,0,12.2,13.6,14.1,14.1c1.9,0.5,7.2-4.3,9.3-6.1c2.1-1.8,8-8.6,9-9.2
				C554.9,342.9,559.7,337.2,555.9,334.1z"/>
			<path class="st14" d="M514,397.1c0.4,1,0.9,1.9,1.2,2.8c1.4-4.4,1.3-11.8,1.3-11.8C515.7,393.2,514,397,514,397.1z"/>
			
				<rect x="533.8" y="381.7" transform="matrix(-1 -1.224647e-16 1.224647e-16 -1 1106.9803 767.7814)" class="st15" width="39.3" height="4.3"/>
			<path class="st15" d="M552.7,367.9c0,0,1,4-3.7,4.9c-4.7,0.9-10.4,2.1-10.4,9.3h16.2L552.7,367.9z"/>
			<polygon class="st6" points="528.7,324.3 528,323.1 527.9,324.5 			"/>
			<path class="st15" d="M573.1,386.1l13.7-57.7c0,0-24.8-3.9-27.8,7.3c-3,11.2-7.8,44.3-13.7,46.3
				C539.4,384,573.1,386.1,573.1,386.1z"/>
			<path class="st11" d="M541.2,356c0,0,0.3,1.1,0.5,1.9l6-7.8L541.2,356z"/>
			<path class="st13" d="M556.3,320.1c0,0-2.4,6.3-1.7,8c0,0-3.7-1.6-3-5.7C552.2,318.2,556.3,320.1,556.3,320.1z"/>
			<polygon class="st8" points="547.7,333.2 547.7,331.9 553,329.4 554.9,331.5 			"/>
		</g>
		<defs>
			<filter id="Adobe_OpacityMaskFilter_2_" filterUnits="userSpaceOnUse" x="91.5" y="423.6" width="201" height="11.6">
				<feFlood  style="flood-color:white;flood-opacity:1" result="back"/>
				<feBlend  in="SourceGraphic" in2="back" mode="normal"/>
			</filter>
		</defs>
		<mask maskUnits="userSpaceOnUse" x="91.5" y="423.6" width="201" height="11.6" id="SVGID_4_">
			<g class="st16">
				<defs>
					<filter id="Adobe_OpacityMaskFilter_3_" filterUnits="userSpaceOnUse" x="91.5" y="423.6" width="201" height="11.6">
						<feFlood  style="flood-color:white;flood-opacity:1" result="back"/>
						<feBlend  in="SourceGraphic" in2="back" mode="normal"/>
					</filter>
				</defs>
				<mask maskUnits="userSpaceOnUse" x="91.5" y="423.6" width="201" height="11.6" id="SVGID_4_">
					<g class="st17">
					</g>
				</mask>
				<linearGradient id="SVGID_5_" gradientUnits="userSpaceOnUse" x1="211.806" y1="463.3351" x2="173.2349" y2="397.0581">
					<stop  offset="0" style="stop-color:#000000"/>
					<stop  offset="0.6943" style="stop-color:#FFFFFF"/>
				</linearGradient>
				<ellipse class="st18" cx="192" cy="429.4" rx="100.5" ry="5.8"/>
			</g>
		</mask>
		<linearGradient id="SVGID_6_" gradientUnits="userSpaceOnUse" x1="211.806" y1="463.3351" x2="173.2349" y2="397.0581">
			<stop  offset="0" style="stop-color:#97CBEC"/>
			<stop  offset="0.6943" style="stop-color:#CCC2F5"/>
		</linearGradient>
		<ellipse class="st19" cx="192" cy="429.4" rx="100.5" ry="5.8"/>
		<g>
			<g>
				<path class="st20" d="M195.6,156.2c-1.4-0.4-2.7-1.2-3.5-2.3c-1-1.3-1.3-2.7-1-4.2c0.4-2.9,0.1-6-0.2-8.1
					c-2.9-3.5-3.8-8.1-2.6-12.5c2.1-7.2,9.6-11.4,16.8-9.3c7.2,2.1,11.4,9.6,9.3,16.8c-1.1,3.9-3.9,7.1-7.7,8.7
					c-1.6,2.5-2.7,4.8-3.3,7c-0.6,2.9-3.9,4.7-7.3,4C196,156.3,195.8,156.2,195.6,156.2z M204.9,120.9c-6.6-1.9-13.6,1.9-15.5,8.5
					c-1.2,4-0.2,8.3,2.5,11.6l0.1,0.1l0,0.2c0.3,2.2,0.6,5.5,0.2,8.6l0,0c-0.2,1.1,0,2.3,0.8,3.3c0.8,1,2,1.8,3.4,2.1
					c2.8,0.6,5.5-0.8,6-3.1l0,0l0,0c0.7-2.3,1.9-4.8,3.5-7.4l0.1-0.1l0.2-0.1c3.5-1.5,6.1-4.4,7.2-8
					C215.3,129.8,211.5,122.8,204.9,120.9z"/>
			</g>
			<g>
				<polygon class="st20" points="194.1,151.1 195.4,136.3 197.9,139.4 200.2,137.7 201.4,140 204.8,138.2 200,152.4 198.9,152 
					202.8,140.5 201,141.5 199.8,139.4 197.7,140.9 196.3,139.1 195.2,151.2 				"/>
			</g>
			<g>
				
					<rect x="191.2" y="154.9" transform="matrix(0.9773 0.2118 -0.2118 0.9773 37.6742 -37.9503)" class="st20" width="9.6" height="3.9"/>
			</g>
			<g>
				
					<rect x="190.2" y="151" transform="matrix(0.9773 0.2118 -0.2118 0.9773 37.1069 -38.1335)" class="st20" width="12.7" height="6.3"/>
			</g>
		</g>
		<g>
			<g>
				<g>
					<g>
						<polygon class="st21" points="489.7,236 488.6,235.6 497.7,209.1 518.1,203.5 525.1,174.4 540.8,167.2 544,144.7 545.2,144.8 
							541.8,168 526.1,175.2 519,204.4 498.6,210 						"/>
					</g>
				</g>
			</g>
			<g>
				<g>
					
						<ellipse transform="matrix(0.7669 -0.6418 0.6418 0.7669 -9.9833 380.3497)" class="st22" cx="518.6" cy="203.9" rx="3.1" ry="3.1"/>
				</g>
			</g>
			<g>
				<g>
					<path class="st21" d="M520.9,206.7c-1.5,1.3-3.8,1.1-5.1-0.5c-1.3-1.5-1.1-3.8,0.5-5.1c1.5-1.3,3.8-1.1,5.1,0.5
						C522.6,203.1,522.4,205.4,520.9,206.7z M517,202c-1.1,0.9-1.2,2.5-0.3,3.5c0.9,1.1,2.5,1.2,3.5,0.3c1.1-0.9,1.2-2.5,0.3-3.5
						C519.6,201.3,518,201.1,517,202z"/>
				</g>
			</g>
			<g>
				<g>
					
						<ellipse transform="matrix(0.7669 -0.6418 0.6418 0.7669 10.2597 378.1632)" class="st22" cx="525.7" cy="175" rx="3.1" ry="3.1"/>
				</g>
			</g>
			<g>
				<g>
					<path class="st21" d="M528,177.8c-1.5,1.3-3.8,1.1-5.1-0.5c-1.3-1.5-1.1-3.8,0.5-5.1c1.5-1.3,3.8-1.1,5.1,0.5
						C529.7,174.2,529.5,176.5,528,177.8z M524.1,173c-1.1,0.9-1.2,2.5-0.3,3.5c0.9,1.1,2.5,1.2,3.5,0.3c1.1-0.9,1.2-2.5,0.3-3.5
						C526.7,172.3,525.1,172.2,524.1,173z"/>
				</g>
			</g>
			<g>
				<g>
					
						<ellipse transform="matrix(0.7669 -0.6417 0.6417 0.7669 18.5463 386.3192)" class="st22" cx="541.1" cy="167.6" rx="3.1" ry="3.1"/>
				</g>
			</g>
			<g>
				<g>
					<path class="st21" d="M543.4,170.4c-1.5,1.3-3.8,1.1-5.1-0.5c-1.3-1.5-1.1-3.8,0.5-5.1c1.5-1.3,3.8-1.1,5.1,0.5
						C545.2,166.8,545,169.1,543.4,170.4z M539.5,165.7c-1.1,0.9-1.2,2.5-0.3,3.5c0.9,1.1,2.5,1.2,3.5,0.3c1.1-0.9,1.2-2.5,0.3-3.5
						C542.1,165,540.6,164.8,539.5,165.7z"/>
				</g>
			</g>
			<g>
				<g>
					
						<ellipse transform="matrix(0.7669 -0.6418 0.6418 0.7669 -18.4993 368.7153)" class="st22" cx="498.3" cy="209.8" rx="3.1" ry="3.1"/>
				</g>
			</g>
			<g>
				<g>
					<path class="st21" d="M500.6,212.6c-1.5,1.3-3.8,1.1-5.1-0.5c-1.3-1.5-1.1-3.8,0.5-5.1c1.5-1.3,3.8-1.1,5.1,0.5
						C502.4,209,502.2,211.3,500.6,212.6z M496.7,207.9c-1.1,0.9-1.2,2.5-0.3,3.5c0.9,1.1,2.5,1.2,3.5,0.3c1.1-0.9,1.2-2.5,0.3-3.5
						C499.3,207.2,497.7,207,496.7,207.9z"/>
				</g>
			</g>
		</g>
		<radialGradient id="SVGID_7_" cx="323.3319" cy="151.9154" r="174.7307" gradientUnits="userSpaceOnUse">
			<stop  offset="7.772020e-03" style="stop-color:#FFDD91"/>
			<stop  offset="0.9948" style="stop-color:#FFE655"/>
		</radialGradient>
		<path class="st23" d="M436.5,175c-0.2-42.4-40.9-76.6-91-76.4c-50,0.2-90.4,34.9-90.2,77.3c0.1,11.2,2.9,21.8,8,31.3
			c0,0.1,27.9,53.9,32.1,105.2c0.1,24,23.1,43.3,51.4,43.1c28.2-0.1,51-19.7,50.9-43.6c3.7-51.3,31.1-105.5,31.1-105.5l0,0
			C433.7,196.8,436.5,186.1,436.5,175z"/>
		<polygon class="st24" points="452,71.3 462.1,71.3 459,64.9 448.8,64.9 		"/>
		<polygon class="st24" points="447.2,71.3 449.6,71.3 446.5,64.9 444.1,64.9 		"/>
		
			<rect x="238.2" y="77.2" transform="matrix(-1 -1.224647e-16 1.224647e-16 -1 502.4112 156.2384)" class="st25" width="26.1" height="1.8"/>
		
			<rect x="238.2" y="80.6" transform="matrix(-1 -1.224647e-16 1.224647e-16 -1 502.4112 168.9737)" class="st25" width="26.1" height="7.7"/>
		
			<rect x="225.9" y="90.9" transform="matrix(-1 -1.224647e-16 1.224647e-16 -1 467.2578 182.9606)" class="st25" width="15.4" height="1.1"/>
		
			<rect x="225.9" y="92.6" transform="matrix(-1 -1.224647e-16 1.224647e-16 -1 467.2578 188.2174)" class="st25" width="15.4" height="3.1"/>
		
			<rect x="268.5" y="67.4" transform="matrix(-1 -1.224647e-16 1.224647e-16 -1 538.1651 156.2399)" class="st26" width="1.1" height="21.5"/>
		
			<rect x="197" y="198.1" transform="matrix(-1 -1.224647e-16 1.224647e-16 -1 414.4434 399.9147)" class="st27" width="20.5" height="3.7"/>
		
			<rect x="197" y="196.4" transform="matrix(-1 -1.224647e-16 1.224647e-16 -1 414.4434 393.4278)" class="st27" width="20.5" height="0.7"/>
		<g>
			<path class="st21" d="M462.4,193.8l-3.2-0.6c7.6-38.3,1.2-69.4-18.7-89.7c-15-15.4-32.6-19.5-32.8-19.5l0.7-3.2
				c0.8,0.2,18.6,4.2,34.3,20.3C457.2,115.8,472.4,143.9,462.4,193.8z"/>
		</g>
		<g>
			<path class="st21" d="M246.4,242.2c-30.7-58.1-11.5-89.7-10.7-91l2.8,1.7c-0.2,0.3-18.9,31.4,10.8,87.7L246.4,242.2z"/>
		</g>
		<path class="st22" d="M386.1,186.6c0.9-2.2,1.4-4.6,1.6-6.9l4.6-1.8l-0.9-5.3l-0.9-5.3l-5-0.2c-1-2.1-2.2-4.2-3.7-6l2-4.5
			l-4.4-3.1l-4.4-3.1l-3.6,3.4c-2.2-0.9-4.6-1.4-6.9-1.6l-1.8-4.6l-5.3,0.9l-5.3,0.9l-0.2,5c-2.1,1-4.2,2.2-6,3.7l-4.5-2l-3.1,4.4
			l-3.1,4.4l3.4,3.6c-0.9,2.2-1.4,4.6-1.6,6.9l-4.6,1.8l0.9,5.3l0.9,5.3l5,0.2c1,2.1,2.2,4.2,3.7,6l-2,4.5l4.4,3.1l4.4,3.1l3.6-3.4
			c2.2,0.9,4.6,1.4,6.9,1.6l1.8,4.6l5.3-0.9l5.3-0.9l0.2-5c2.1-1,4.2-2.2,6-3.7l4.5,2l3.1-4.4l3.1-4.4L386.1,186.6z M354.6,188.3
			c-6-4.2-7.4-12.5-3.1-18.5c4.2-6,12.5-7.4,18.5-3.1c6,4.2,7.4,12.5,3.1,18.5C368.8,191.1,360.6,192.5,354.6,188.3z"/>
		<path class="st22" d="M337.2,215.5c0.5-1.4,0.9-2.9,1-4.4l2.9-1.1l-0.6-3.4l-0.6-3.4l-3.1-0.1c-0.6-1.4-1.4-2.6-2.4-3.8l1.3-2.9
			l-2.8-2l-2.8-2l-2.3,2.2c-1.4-0.5-2.9-0.9-4.4-1l-1.1-2.9l-3.4,0.6l-3.4,0.6l-0.1,3.1c-1.3,0.6-2.6,1.4-3.8,2.4l-2.9-1.3l-2,2.8
			l-2,2.8l2.2,2.3c-0.5,1.4-0.9,2.9-1,4.4l-2.9,1.1l0.6,3.4l0.6,3.4l3.1,0.1c0.6,1.4,1.4,2.6,2.4,3.8l-1.3,2.9l2.8,2l2.8,2l2.3-2.2
			c1.4,0.5,2.9,0.9,4.4,1l1.1,2.9l3.4-0.6l3.4-0.6l0.1-3.1c1.3-0.6,2.6-1.4,3.8-2.4l2.9,1.3l2-2.8l2-2.8L337.2,215.5z M317.3,216.6
			c-3.8-2.7-4.7-7.9-2-11.7c2.7-3.8,7.9-4.7,11.7-2c3.8,2.7,4.7,7.9,2,11.7C326.3,218.4,321.1,219.2,317.3,216.6z"/>
		<linearGradient id="SVGID_8_" gradientUnits="userSpaceOnUse" x1="241.4055" y1="209.7279" x2="452.5987" y2="209.7279">
			<stop  offset="0" style="stop-color:#E0E0E0"/>
			<stop  offset="1" style="stop-color:#FF556F"/>
		</linearGradient>
		<path class="st28" d="M249.7,337.1c0,0-50.5-258.2,98.1-254.6c148.6,3.6,95.7,254.5,95.7,254.5L249.7,337.1z"/>
		<defs>
			<filter id="Adobe_OpacityMaskFilter_4_" filterUnits="userSpaceOnUse" x="314.9" y="246.6" width="15.5" height="99.9">
				<feFlood  style="flood-color:white;flood-opacity:1" result="back"/>
				<feBlend  in="SourceGraphic" in2="back" mode="normal"/>
			</filter>
		</defs>
		<mask maskUnits="userSpaceOnUse" x="314.9" y="246.6" width="15.5" height="99.9" id="SVGID_9_">
			<g class="st29">
				<defs>
					<filter id="Adobe_OpacityMaskFilter_5_" filterUnits="userSpaceOnUse" x="314.9" y="246.6" width="15.5" height="99.9">
						<feFlood  style="flood-color:white;flood-opacity:1" result="back"/>
						<feBlend  in="SourceGraphic" in2="back" mode="normal"/>
					</filter>
				</defs>
				<mask maskUnits="userSpaceOnUse" x="314.9" y="246.6" width="15.5" height="99.9" id="SVGID_9_">
					<g class="st30">
					</g>
				</mask>
				<linearGradient id="SVGID_10_" gradientUnits="userSpaceOnUse" x1="322.6006" y1="206.7847" x2="322.6006" y2="317.0177">
					<stop  offset="7.772020e-03" style="stop-color:#000000"/>
					<stop  offset="1" style="stop-color:#FFFFFF"/>
				</linearGradient>
				<polygon class="st31" points="330.3,346.1 327.5,346.5 314.9,247 317.7,246.6 				"/>
			</g>
		</mask>
		<linearGradient id="SVGID_11_" gradientUnits="userSpaceOnUse" x1="322.6006" y1="206.7847" x2="322.6006" y2="317.0177">
			<stop  offset="7.772020e-03" style="stop-color:#FFDD91"/>
			<stop  offset="1" style="stop-color:#FFFFFF"/>
		</linearGradient>
		<polygon class="st32" points="330.3,346.1 327.5,346.5 314.9,247 317.7,246.6 		"/>
		<defs>
			<filter id="Adobe_OpacityMaskFilter_6_" filterUnits="userSpaceOnUse" x="367.9" y="246.3" width="14.5" height="100">
				<feFlood  style="flood-color:white;flood-opacity:1" result="back"/>
				<feBlend  in="SourceGraphic" in2="back" mode="normal"/>
			</filter>
		</defs>
		<mask maskUnits="userSpaceOnUse" x="367.9" y="246.3" width="14.5" height="100" id="SVGID_12_">
			<g class="st33">
				<defs>
					<filter id="Adobe_OpacityMaskFilter_7_" filterUnits="userSpaceOnUse" x="367.9" y="246.3" width="14.5" height="100">
						<feFlood  style="flood-color:white;flood-opacity:1" result="back"/>
						<feBlend  in="SourceGraphic" in2="back" mode="normal"/>
					</filter>
				</defs>
				<mask maskUnits="userSpaceOnUse" x="367.9" y="246.3" width="14.5" height="100" id="SVGID_12_">
					<g class="st34">
					</g>
				</mask>
				<linearGradient id="SVGID_13_" gradientUnits="userSpaceOnUse" x1="375.0971" y1="206.784" x2="375.0971" y2="317.018">
					<stop  offset="7.772020e-03" style="stop-color:#000000"/>
					<stop  offset="1" style="stop-color:#FFFFFF"/>
				</linearGradient>
				<polygon class="st35" points="367.9,346 370.7,346.3 382.3,246.7 379.5,246.3 				"/>
			</g>
		</mask>
		<linearGradient id="SVGID_14_" gradientUnits="userSpaceOnUse" x1="375.0971" y1="206.784" x2="375.0971" y2="317.018">
			<stop  offset="7.772020e-03" style="stop-color:#FFDD91"/>
			<stop  offset="1" style="stop-color:#FFFFFF"/>
		</linearGradient>
		<polygon class="st36" points="367.9,346 370.7,346.3 382.3,246.7 379.5,246.3 		"/>
		<g>
			<defs>
				<filter id="Adobe_OpacityMaskFilter_8_" filterUnits="userSpaceOnUse" x="316.3" y="248.4" width="65" height="13.6">
					<feFlood  style="flood-color:white;flood-opacity:1" result="back"/>
					<feBlend  in="SourceGraphic" in2="back" mode="normal"/>
				</filter>
			</defs>
			<mask maskUnits="userSpaceOnUse" x="316.3" y="248.4" width="65" height="13.6" id="SVGID_15_">
				<g class="st37">
					<defs>
						<filter id="Adobe_OpacityMaskFilter_9_" filterUnits="userSpaceOnUse" x="316.3" y="248.4" width="65" height="13.6">
							<feFlood  style="flood-color:white;flood-opacity:1" result="back"/>
							<feBlend  in="SourceGraphic" in2="back" mode="normal"/>
						</filter>
					</defs>
					<mask maskUnits="userSpaceOnUse" x="316.3" y="248.4" width="65" height="13.6" id="SVGID_15_">
						<g class="st38">
						</g>
					</mask>
					<linearGradient id="SVGID_16_" gradientUnits="userSpaceOnUse" x1="348.7517" y1="206.7827" x2="348.7517" y2="317.02">
						<stop  offset="7.772020e-03" style="stop-color:#000000"/>
						<stop  offset="1" style="stop-color:#FFFFFF"/>
					</linearGradient>
					<polygon class="st39" points="369.9,262 359,251.2 348.4,261.9 337.9,251.5 327.7,261.9 316.3,250.6 317.6,249.2 327.6,259.1 
						337.9,248.7 348.4,259.1 359,248.4 369.9,259.2 379.8,249.1 381.3,250.5 					"/>
				</g>
			</mask>
			<linearGradient id="SVGID_17_" gradientUnits="userSpaceOnUse" x1="348.7517" y1="206.7827" x2="348.7517" y2="317.02">
				<stop  offset="7.772020e-03" style="stop-color:#FFDD91"/>
				<stop  offset="1" style="stop-color:#FFFFFF"/>
			</linearGradient>
			<polygon class="st40" points="369.9,262 359,251.2 348.4,261.9 337.9,251.5 327.7,261.9 316.3,250.6 317.6,249.2 327.6,259.1 
				337.9,248.7 348.4,259.1 359,248.4 369.9,259.2 379.8,249.1 381.3,250.5 			"/>
		</g>
		<path class="st41" d="M375.8,382.7l-58,0.3c-6.4,0-11.7-5.2-11.7-11.6l-0.1-22.8l81.3-0.4l0.1,22.8
			C387.4,377.5,382.2,382.7,375.8,382.7z"/>
		<linearGradient id="SVGID_18_" gradientUnits="userSpaceOnUse" x1="292.7485" y1="340.8815" x2="400.3742" y2="340.8815">
			<stop  offset="0" style="stop-color:#40D5E6"/>
			<stop  offset="1" style="stop-color:#5577FF"/>
		</linearGradient>
		<path class="st42" d="M383,368.5l-72.4,0.4c-9.7,0-17.5-7.8-17.6-17.4l-0.2-38l107.4-0.5l0.2,38
			C400.4,360.6,392.6,368.4,383,368.5z"/>
		
			<linearGradient id="SVGID_19_" gradientUnits="userSpaceOnUse" x1="-11531.9678" y1="367.2036" x2="-11845.5166" y2="367.2036" gradientTransform="matrix(-1 0 0 1 -11332.04 0)">
			<stop  offset="0" style="stop-color:#FF9F55"/>
			<stop  offset="1" style="stop-color:#FFD255"/>
		</linearGradient>
		<rect x="249.7" y="336.9" class="st43" width="193.8" height="60.6"/>
		
			<linearGradient id="SVGID_20_" gradientUnits="userSpaceOnUse" x1="-11647.291" y1="367.2036" x2="-11739.2314" y2="367.2036" gradientTransform="matrix(-1 0 0 1 -11332.04 0)">
			<stop  offset="0" style="stop-color:#FF9F55"/>
			<stop  offset="1" style="stop-color:#FFD255"/>
		</linearGradient>
		<polygon class="st44" points="443.4,397.5 443.4,336.9 372.9,336.9 335,396.8 		"/>
		<rect x="253.5" y="309.2" class="st45" width="2.4" height="107.1"/>
		<path class="st46" d="M259.1,398.6h-63.4c-3.9,0-7.1-3.2-7.1-7.1V271.5c0-3.9,3.2-7.1,7.1-7.1h63.4c3.9,0,7.1,3.2,7.1,7.1v120.1
			C266.2,395.4,263.1,398.6,259.1,398.6z"/>
		<path class="st22" d="M257.1,393.4h-59.3c-3.9,0-7-3.1-7-7V273.5c0-3.9,3.1-7,7-7h59.3c3.9,0,7,3.1,7,7v112.8
			C264.1,390.2,261,393.4,257.1,393.4z"/>
		<rect x="215.9" y="263.4" class="st45" width="23.1" height="5.2"/>
		<g>
			<path class="st47" d="M206.1,293.7c0-10.9,8.9-19.8,19.8-19.8v0.9c-10.4,0-18.9,8.5-18.9,18.9c0,11.5,10.1,20.2,21.2,18.8
				c9.3-1.1,16.6-9.1,16.6-18.8c0-0.9-0.1-1.9-0.2-2.8l0.9-0.1c0.1,1,0.2,1.9,0.2,2.9c0,10.1-7.6,18.5-17.4,19.7
				C216.6,314.8,206.1,305.7,206.1,293.7z"/>
		</g>
		<g>
			<g>
				<g>
					<g>
						<path class="st6" d="M180.9,356.1c0,0,0.5,0.9,0.6,1.6c0.1,0.6,0.5,1.4,0.7,1.9c0.2,0.5,0.9,2.6,0.9,3.1
							c0,0.2-0.5,1.6-0.4,2.1c0.1,0.5,0.3,1.3-0.1,1.4c-0.4,0.1-0.9-0.7-0.9-0.7s0,0.4-0.3,0.6c-0.7,0.3-1,0-1,0s-0.2,0.5-0.6,0.5
							c-0.7,0.1-1-0.1-1-0.1s-0.3,0.3-0.8,0.2c-0.6,0-0.9-0.5-0.9-0.5s-0.8,0.2-1-0.2c-0.2-0.4-0.2-0.7-0.3-1.1
							c-0.1-0.3,0-3.2,1-5.3c1-2.1-0.3-4.1-0.3-4.1L180.9,356.1z"/>
					</g>
				</g>
			</g>
			<g>
				<g>
					<path class="st10" d="M181.9,365.2c0,0,0.1-2.6-0.6-3.2c-0.7-0.6-0.8,0.4-0.8,0.4s0.1-0.9-0.7-1.1c-0.8-0.1-0.8,1-0.8,1
						s-0.1-0.7-0.9-0.6c-0.8,0.1-0.6,1.1-0.6,1.1s-0.8-0.9-1.2,0c-0.8,1.5-0.1,3.2-0.1,3.2s0.3,0.4,1,0.2c0,0,0.5,1,1.6,0.3
						c0,0,1.2,0.6,1.6-0.4C180.5,366.2,181.9,366.7,181.9,365.2z"/>
				</g>
			</g>
			<path class="st48" d="M189.8,318.5c0,0-4.5,14.9-6,20.4c-0.5,1.7-1.6,18.2-1.8,18.8c-0.2,0.7-5.9,1.6-5.9,1.6s0.7-20.6,0.8-21.7
				c0.1-1.1,6.3-24.1,8-24.9c1.3-0.6,2.1-0.1,3.8,1.2C191.1,315.6,189.8,318.5,189.8,318.5z"/>
			<g>
				
					<rect x="232.6" y="294.3" transform="matrix(0.837 -0.5472 0.5472 0.837 -122.3617 178.6711)" class="st49" width="12.2" height="0.9"/>
			</g>
			<path class="st50" d="M245.2,294.8c0,0-0.1,0.6-0.3,0.8c0,0-0.3,0.4-0.6,0.7c-0.1,0.1-0.1,0.2-0.2,0.2c-0.1,0.2-0.4,0.8-0.8,1.3
				c-0.5,0.5-2.4,2.1-2.4,2.1l-1.6-1.4l-1.7-0.8c0,0,0.9-4.1,1.3-4.6c0,0,0.1-0.1,0.1-0.1c0.4-0.4,0.8-0.5,1.1-0.7
				c0.1-0.1,1-0.7,1.3-0.6c0.4,0.1,0.7,0.4,0.8,0.7c0,0,0.8,0.3,1.2,0.7c0,0,0.8,0.2,1,0.9C244.4,294.1,245.1,294.4,245.2,294.8z"/>
			<g>
				<g>
					<path class="st51" d="M186.2,420.2c0,0-0.4,2.8-0.5,3.3c-0.1,0.4-4.5-0.2-4.5-0.2l-0.4-3.4
						C180.8,419.8,185.6,419.8,186.2,420.2z"/>
				</g>
			</g>
			<g>
				<g>
					<path class="st52" d="M185.8,423.1c0,0,1.4,1.7,2.8,2.4c1.4,0.7,3.5,1,4.3,1.8c0.6,0.6,2.1,2.9-3.6,2.9c-5.7,0-8.4,0.3-9.1-0.6
						c-0.6-0.9,0.9-6.8,0.9-6.8S182.5,423.4,185.8,423.1z"/>
				</g>
			</g>
			<g>
				<g>
					<path class="st51" d="M218.3,420.2c0,0-0.4,2.8-0.5,3.3c-0.1,0.4-4.5-0.2-4.5-0.2l-0.4-3.4
						C212.9,419.8,217.7,419.8,218.3,420.2z"/>
				</g>
			</g>
			<g>
				<g>
					<path class="st52" d="M217.9,423.1c0,0,1.4,1.7,2.8,2.4c1.4,0.7,6.4,1.4,7.2,2.1c0.6,0.6,1.6,2.8-6.5,2.6
						c-5.7-0.1-8.4,0.3-9.1-0.6c-0.6-0.9,0.9-6.8,0.9-6.8S214.5,423.4,217.9,423.1z"/>
				</g>
			</g>
			<g>
				<g>
					<path class="st52" d="M189.9,347.6c0,0-4.2,6.7-3.9,12.7c0.3,6-1.5,12.6-2.2,19c-0.7,7-3.6,23.7-3.7,27.5
						c-0.1,3.8,0.4,15.8,0.4,15.8l5.8,0.1c0,0,4.8-29.1,6.1-32.1c1.3-3,7.5-24.2,7.7-26.5C200.4,361.6,189.9,347.6,189.9,347.6z"/>
				</g>
			</g>
			<g>
				<g>
					<path class="st52" d="M212,348.5c0,0,3.2,16.6,3.6,20.3c0.4,3.7,0.7,17.9,0.9,20.2c0.2,2.3,2,30.2,2.5,33.7h-7.4
						c0,0-5.7-20.3-5.7-29.9s-4.4-20.9-7.2-27.2c-2.8-6.3-9.3-6.5-11-18.3C187.8,347.2,209.7,344.7,212,348.5z"/>
				</g>
			</g>
			<g>
				<g>
					<path class="st6" d="M196.9,291.4c0,0,5.6-2.1,8.3,2.2c2.6,4.3,2.4,12.9-0.5,14c-2.8,1.1-7.1,0.5-8.6-2.2
						c-1.5-2.7-2.8-6.6-2.7-9.2C193.4,293.5,195.4,292.1,196.9,291.4z"/>
				</g>
			</g>
			<g>
				<g>
					<path class="st6" d="M204.1,307.7c0,0-0.2,1.5,0.2,2.3c0.4,0.8-7.3,0.8-7.3,0.8s-0.6-4.1-1.8-7.5
						C193.9,299.8,204.1,307.7,204.1,307.7z"/>
				</g>
			</g>
			<g>
				<g>
					<path class="st52" d="M195.1,303.2c0,0,0.5,0.9,2.7,0.5c2.2-0.3,4.8-3.2,5.7-3.5c0.9-0.3,0.9-0.8,0.9-0.8l0.6,0.8l1,0.1
						c0,0-0.9-2.6,0.4-3.6c1.3-1.1-1.4-8.4-8.3-5.9c0,0-5.3,1.5-5.2,4.5C193.1,298.2,193.9,301.7,195.1,303.2z"/>
				</g>
			</g>
			<g>
				<g>
					<path class="st53" d="M204.7,309.9c0,0,0-1.4-0.7-1.6c-0.7-0.1-7.2-0.8-8-0.5v1.7C196,309.5,197.5,310.5,204.7,309.9z"/>
				</g>
			</g>
			<g>
				<g>
					<path class="st6" d="M204.3,298.2c-0.1-0.5-1.4-2-1.9-0.4c-0.5,1.6,0.8,3.7,1.4,3.5C204.5,301.1,204.6,299.5,204.3,298.2z"/>
				</g>
			</g>
			<g>
				<g>
					<path class="st48" d="M215.5,312.1c-4.5-0.6-10.8-2.2-10.8-2.2l-8.7-0.4c0,0-7.9,1.7-11.1,3.2c-0.3,0.1-0.3,7.1-1.1,8.9
						l2.6,5.5c0,0,1.5,10.8,1.8,15.7c0.1,2.2-3.1,20.7-3.1,20.7s3.5,1,9.4,1.7c5.9,0.7,20.7-0.2,20.8-0.9c0.1-0.7-2.9-26-3-27.3
						c-0.2-2,0.7-12.7,0.7-12.7c1.4-1.1,13.3-6.6,16.6-9.5c0.9-0.8,4.6-4.4,5.6-5.6c3.7-4.4,6.8-8.2,7.1-9c0.4-0.5-4.2-3-4.6-3.1
						c-0.4-0.1-5.2,6.5-7.2,8.5c-0.9,0.9-4.4,3.5-4.4,3.5S218.3,312.2,215.5,312.1z"/>
				</g>
			</g>
			<g>
				<g>
					<path class="st52" d="M195.3,291.9c0,0-7.2,0.6-0.2,11.4L195.3,291.9z"/>
				</g>
			</g>
			<polygon class="st54" points="244.1,291.8 244.7,290.8 243.6,291 			"/>
		</g>
		<polygon class="st55" points="594.1,272.9 560.4,272.9 560.4,297.3 560.4,302.5 565.6,297.3 594.1,297.3 		"/>
		<g>
			<path class="st56" d="M129.4,423.2c0,0-1,1.9-1.7,2.7c-0.7,0.8-3.3,2.1-3.3,4.4c0,2.5,4.4,1.8,6.1,1.7c1.7-0.1,1.9-1.4,2.6-2.8
				c0.7-1.4,1.5-1.2,1.6-2.3c0.1-1.1-0.7-3.7-0.7-3.7H129.4z"/>
			<g>
				<path class="st57" d="M155.5,357c0,0-4.9-11.3-5.4-14.1c-0.3-1.3-1-4.4-1.5-7c-0.2-0.8-0.3-1.7-0.4-2.6c0,0,0,0,0,0
					c-0.4-3.4-0.5-6.5-0.5-6.5s-2.6-8.8,2.9-9.4c0,0,2,0.7,2,0.8c0.9,2.2,1.3,7.7,1.3,8.9c0,1,1.5,10.8,1.5,11.1
					c0,0.7,1.5,4.2,2.3,6.8c1.7,5.7,2.6,10.2,2.6,10.2L155.5,357z"/>
			</g>
			<rect x="144.5" y="337.4" class="st58" width="24.9" height="21.8"/>
			<g>
				<g>
					<rect x="160.6" y="348.6" class="st59" width="1.4" height="6.7"/>
				</g>
			</g>
			<g>
				<g>
					<rect x="162.5" y="350.4" class="st59" width="1.4" height="4.9"/>
				</g>
			</g>
			<g>
				<g>
					<rect x="164.4" y="347.8" class="st59" width="1.4" height="7.5"/>
				</g>
			</g>
			<path class="st6" d="M163.6,357.8c0,0-0.1,2.9-1.7,3.4c-1.6,0.5-3.3,0.1-4-0.4c-0.7-0.4-2.6-1.7-1.9-2.5
				C158.2,355.7,163.6,357.8,163.6,357.8z"/>
			<path class="st6" d="M162.8,360.5c0,0,2,0.1,1.9-0.7c-0.1-0.8-1.5-0.5-1.5-0.5L162.8,360.5z"/>
			<g>
				<g>
					<rect x="154.6" y="350.2" class="st59" width="1.4" height="5.1"/>
				</g>
			</g>
			<g>
				<g>
					<rect x="156.6" y="349.7" class="st59" width="1.4" height="5.6"/>
				</g>
			</g>
			<g>
				<g>
					<rect x="158.6" y="350.8" class="st59" width="1.4" height="4.5"/>
				</g>
			</g>
			<g>
				<g>
					<rect x="152.5" y="350.8" class="st59" width="1.4" height="4.5"/>
				</g>
			</g>
			<g>
				<g>
					<g>
						<path class="st59" d="M147.7,347.4C147.7,347.4,147.7,347.4,147.7,347.4L147.7,347.4l-1.5,1.1l0-0.1L147.7,347.4L147.7,347.4z
							"/>
					</g>
					<g>
						<path class="st59" d="M153,347.7C153,347.7,153,347.7,153,347.7L153,347.7l-4.3-0.4l-0.1,0c0,0,0,0,0-0.1l0.1,0L153,347.7
							L153,347.7z"/>
					</g>
					<g>
						<path class="st59" d="M157.2,344.5L157.2,344.5l-3.2,2.9l0,0c0,0,0,0,0,0l0,0L157.2,344.5L157.2,344.5
							C157.2,344.5,157.2,344.5,157.2,344.5z"/>
					</g>
					<g>
						<path class="st59" d="M162.3,344.1C162.3,344.1,162.3,344.2,162.3,344.1l-4.3,0c0,0,0,0,0,0c0,0,0,0,0,0L162.3,344.1
							C162.3,344.1,162.3,344.1,162.3,344.1z"/>
					</g>
					<g>
						<path class="st59" d="M166,340.7l-2.7,3l0,0c0,0,0,0,0,0l0,0L166,340.7L166,340.7z"/>
					</g>
				</g>
				<g>
					<g>
						<path class="st59" d="M148.1,346.5c-0.3,0-0.6,0.3-0.6,0.6c0,0.1,0,0.2,0.1,0.3c0,0,0,0,0,0.1c0.1,0.1,0.3,0.2,0.5,0.2
							c0.3,0,0.5-0.2,0.6-0.5c0,0,0,0,0-0.1c0,0,0,0,0,0C148.7,346.8,148.4,346.5,148.1,346.5z M148.6,347.2c0,0.2-0.3,0.4-0.5,0.4
							c-0.2,0-0.3-0.1-0.4-0.2c0,0,0,0,0-0.1c0-0.1-0.1-0.2-0.1-0.3c0-0.3,0.2-0.5,0.5-0.5S148.6,346.8,148.6,347.2
							C148.6,347.1,148.6,347.2,148.6,347.2C148.6,347.2,148.6,347.2,148.6,347.2z"/>
					</g>
				</g>
				<g>
					<g>
						<path class="st59" d="M154,347.4C154,347.4,154,347.4,154,347.4c-0.2-0.2-0.3-0.2-0.5-0.2c-0.3,0-0.5,0.2-0.6,0.5
							c0,0,0,0,0,0.1c0,0,0,0,0,0c0,0.3,0.3,0.6,0.6,0.6c0.3,0,0.6-0.3,0.6-0.6C154.1,347.6,154.1,347.5,154,347.4z M153.5,348.3
							c-0.3,0-0.5-0.2-0.5-0.5c0,0,0,0,0,0c0,0,0,0,0-0.1c0-0.2,0.3-0.4,0.5-0.4c0.1,0,0.3,0.1,0.4,0.1c0,0,0,0,0,0
							c0.1,0.1,0.1,0.2,0.1,0.3C154.1,348.1,153.8,348.3,153.5,348.3z"/>
					</g>
				</g>
				<g>
					<g>
						<path class="st59" d="M158.1,344.1c0-0.3-0.3-0.6-0.6-0.6c-0.3,0-0.6,0.3-0.6,0.6c0,0.1,0,0.3,0.1,0.4c0,0,0,0,0,0
							c0.1,0.1,0.3,0.2,0.4,0.2C157.9,344.7,158.1,344.5,158.1,344.1C158.1,344.2,158.1,344.1,158.1,344.1
							C158.1,344.1,158.1,344.1,158.1,344.1z M157.6,344.7c-0.1,0-0.3-0.1-0.4-0.1c0,0,0,0,0,0c-0.1-0.1-0.1-0.2-0.1-0.3
							c0-0.3,0.2-0.5,0.5-0.5c0.3,0,0.5,0.2,0.5,0.5c0,0,0,0,0,0c0,0,0,0,0,0C158.1,344.4,157.8,344.7,157.6,344.7z"/>
					</g>
				</g>
				<g>
					<g>
						<path class="st59" d="M163.3,343.7C163.3,343.7,163.3,343.7,163.3,343.7c-0.2-0.1-0.3-0.2-0.4-0.2c-0.3,0-0.6,0.2-0.6,0.6
							c0,0,0,0,0,0c0,0,0,0,0,0c0,0.3,0.3,0.6,0.6,0.6c0.3,0,0.6-0.3,0.6-0.6C163.5,344,163.4,343.8,163.3,343.7z M162.9,344.7
							c-0.3,0-0.5-0.2-0.5-0.5c0,0,0,0,0,0c0,0,0,0,0,0c0-0.3,0.2-0.5,0.5-0.5c0.1,0,0.2,0,0.3,0.1c0,0,0,0,0,0
							c0.1,0.1,0.1,0.2,0.1,0.4C163.4,344.4,163.2,344.7,162.9,344.7z"/>
					</g>
				</g>
			</g>
			<g>
				<g>
					<path class="st6" d="M116.2,357.4c0,0-0.9,1.5-1.9,1.5c-0.9,0-2,0.5-2.4,0.7c-0.5,0.2-2.2,0.4-1.9,1c0.3,0.6,2.8-0.2,3.4-0.2
						c0.6-0.1-0.9,1.9-0.9,2.5c0,0.6,3.6,2.6,4.5,1.1c0.8-1.5,0.7-3.5,0.9-3.8c0.2-0.2,0.7-1,0.7-1L116.2,357.4z"/>
				</g>
			</g>
			<g>
				<g>
					<path class="st6" d="M112.7,362.4c0,0-2.3,4.7-2.2,5.1c0.1,0.4,0.4,0.5,0.6,0.1c0.2-0.4,2.3-4.4,2.3-4.4s-1.7,5.9-1.7,6.3
						c0,0.2,0.5,0.4,0.7,0.2c0.1-0.2,2.2-6,2.2-6s-1.6,5.5-1.5,5.8c0.1,0.3,0.6,0.3,0.8-0.1c0.1-0.4,2-5.5,2-5.5s-0.9,4.1-0.6,4.3
						c0.2,0.1,0.6,0.3,0.8-0.7c0.2-1.1,0.9-3.5,0.9-3.5L112.7,362.4z"/>
				</g>
			</g>
			<g>
				<path class="st56" d="M155.6,422.9c0,0,2.1,2.4,4.3,2.9c2.2,0.5,3.7,1.1,3.7,2.5c0,1.4-6.2,2.3-8.7,0.9c-3.7-2-4.1-1.4-4.5-2.5
					c-0.4-1,0.5-3.8,0.5-4.1C150.9,422.2,155.6,422.9,155.6,422.9z"/>
			</g>
			<g>
				<path class="st60" d="M155.4,421.8c0,0,0.3,1.1,0.2,1.1c0,0-4.9,0.6-4.7-0.3c0.1-0.7,0.3-1.5,0.3-1.5L155.4,421.8z"/>
			</g>
			<g>
				<path class="st60" d="M133.9,422.4c0,0,0.2,1.1,0.2,1.1c0,0-4.9,0.9-4.9,0c0-0.7,0.4-1.5,0.4-1.5L133.9,422.4z"/>
			</g>
			<g>
				<path class="st52" d="M151,355.3c0,0,1.8,17,2.7,22.8c1.1,6.8,1.4,12.4,1.7,15.9c0.4,4.4,0.4,26.2,0.7,27.5
					c0.3,1.3-5.8,0.4-5.8,0.4s-3-28.5-4.1-33.2c-1-4.4-4.9-23.3-5.8-22.1c-0.9,1.2-2.1,22.1-2.8,25.5c-0.7,3.5-2.8,30.6-2.8,30.6
					s-4.8,1-6.1-0.1c0,0-0.6-23.4-0.1-29.9c0.2-2.5-2.9-29.7,1-40.6C131.6,346.4,151,355.3,151,355.3z"/>
			</g>
			<g>
				<path class="st61" d="M116.8,357.7c0,0,1.3,1.5,2.6,1.3c1.2-0.2,6.4-16,6.5-19.2c0-2.6,1.4-9.3,1.4-9.3s0,0,0,0c0,0,0,0,0,0
					c0,0,0,0,0,0c0.1,0.5,2,7.5,2.1,10.9c0.1,3.5-0.2,15.5-0.2,15.5l4.7,1.3l15,0.1l3.4-1.4c0,0-0.4-3.9-0.5-6.6
					c-0.1-1.7-0.4-4.8-0.3-7.8c0,0-0.1-3.2,0.3-4.5c0-6,0.4-12,0.4-12c0.2-2.7,0.3-5.3,0.4-7.7c-0.7-0.3-1.5-0.8-2.1-1.1
					c-2-0.9-4.7-2.2-6.5-3c-1-0.5-2-0.8-2-0.8s-7-0.7-7.6-0.6c-0.2,0-1.1,0.3-2.2,0.8c-2.5,0.9-7.3,2.9-8.1,3.4
					c-1.1,0.8-3.5,19.9-3.6,21.2C120.2,340.6,116.8,357.7,116.8,357.7z"/>
			</g>
			<path class="st62" d="M151.8,355.7c0,0-10.3,0.9-19.3,0v3c0,0,13.4,1.3,19.7-0.6L151.8,355.7z"/>
			<g>
				<path class="st57" d="M143,313.9c0,0,1.7,3.9,2.9,12.7c0.5,3.4,1.4,9,2,14.8v0c0.5,4.6,1.7,9.3,2.1,12.7
					c0.4,3.6,1.5,14.3,1.5,14.3l2.8-1.8c0.4-0.4,1-0.9,0.8-1.4c-0.8-2.5-2.3-10.7-3.1-17.9c0,0,0,0,0,0c0-0.3-0.1-0.7-0.1-1
					c0,0,0,0,0-0.1c-0.2-1.4-0.3-2.8-0.4-4.1c-0.1-1,0-1.9,0.1-2.8c0.4-6.5,0.6-13.3,0.6-13.3c0.2-2.8,0.3-5.4,0.4-7.8
					C152.6,318.3,143.8,314.1,143,313.9z"/>
			</g>
			<g>
				<path class="st57" d="M126,340c-0.2,2.9-5.6,20-6.3,20c-1.3-0.1-5.5-1.5-5.5-1.5s5.2-17.4,5.4-19.2c0.1-1.3,2.3-21.3,3.4-22.1
					c0.6-0.5,5.4-2.2,7.8-3.1c0.4-0.2,1.8-0.7,2.2-0.8c0.5,0.6,4,4.3,5.2,18.7c0.2,2.4-0.4,7.5-0.9,11.7c-0.5,4.5-1,7.9-1.3,11.7
					c-0.7,7.3-1.3,13.2-1.3,13.2l-7.3-3.3c-1.2-0.6-2.8-3-2.4-4.3c1.7-4.7,3.8-12.8,3.8-17c0,0-0.8-10.2-1.5-12.4
					C127.5,331.6,126.3,336.3,126,340z"/>
			</g>
			<path class="st6" d="M138.6,295c0,0,7.3-2.7,6.9,7c-0.5,9.7-2.2,10.7-7,9.4c-4.8-1.4-5.2-7.5-5.9-10.5
				C132,298,136.2,295.4,138.6,295z"/>
			<path class="st63" d="M133.7,305.8c0,0,0-2.6,1.1-2.8c1.1-0.2,1.6,1.3,1.6,1.3l0.9,0c0,0-0.8-2.6,0.3-3.2c1-0.6,7.2-0.1,8-1
				c0.8-0.9-0.3-6.2-2-6.7c-1.7-0.5-6.3-1.6-9.2,1c0,0-2.5,0-2.6,2.1C131.5,298.5,132.8,304.3,133.7,305.8z"/>
			<path class="st6" d="M135.9,301.8c-0.3-0.9-2.2-0.8-2,0.6c0.2,1.4,1.7,3.5,2.3,3.1C136.9,305.1,136.4,303,135.9,301.8z"/>
			<g>
				<path class="st64" d="M134.9,313.6c0,0,0.6-0.5-0.3-5.4c-0.2-1.3,6.9,1.6,6.9,1.6s-0.1,1.1-0.1,2.1c0,0.5,0,1,0.1,1.3
					c0,0.3,0.2,0.8,0.3,0.9C142.1,314.9,137.6,315.5,134.9,313.6z"/>
			</g>
			<path class="st14" d="M141.5,313.2c-4.3-0.1-5.7-3.3-5.7-3.4c2.3,2.3,5.6,2.1,5.6,2.1C141.5,312.4,141.5,312.8,141.5,313.2z"/>
			<path class="st65" d="M139.8,316.1l1.3,1.7c0,0-0.8,1-2.1,0.3L139.8,316.1z"/>
			<path class="st65" d="M140.7,317.9c0,0,4.8,18.5,3.8,33l-1.6,2.9l-1.5-3c0,0-0.4-25.8-1.7-32.9L140.7,317.9z"/>
			<path class="st64" d="M141.2,314.5l-1.4,1.6c0,0-2.2-0.4-2.9-1.6C136.3,313.3,141.2,314.5,141.2,314.5z"/>
			<path class="st66" d="M141.5,313.1c0,0-0.2,1.2-1.7,3l1.7,2.3l0.9-4.7L141.5,313.1z"/>
			<path class="st66" d="M135.1,311.8c0,0,2.4,3.4,4.7,4.3l-1,2.6l-4.8-5.8L135.1,311.8z"/>
		</g>
		<g>
			<g>
				<polygon class="st67" points="489.3,423.8 483.3,384.4 484.5,384.2 490.4,423.6 				"/>
			</g>
			<g>
				<polygon class="st67" points="482,423.8 476.1,384.4 477.3,384.2 483.2,423.6 				"/>
			</g>
			<g>
				<polygon class="st67" points="446.4,423.8 445.3,423.6 451.2,384.2 452.3,384.4 				"/>
			</g>
			<path class="st68" d="M485.2,384.8l4.6-48.8c0,0-8.1-1.1-13-0.8l-7.4,49.6H485.2z"/>
			<rect x="469.4" y="382.3" class="st68" width="15.8" height="2.5"/>
			<path class="st68" d="M459.1,382.8l-2.5-46.5c0,0,20.5-2.2,33.2-0.3L459.1,382.8z"/>
			<path class="st69" d="M475.5,321.2c0,0,3.2-9.3-2.9-12.2c-6.1-2.9-11.2,1.3-12.2,3.5c-1,2.3-0.7,6.4,0.1,9.2
				c0.8,2.9,0.7,7.2-1.1,8.7c-1.8,1.5-4,3.9-3.9,8.8c0.1,3.1,12-7.8,12-7.8L475.5,321.2z"/>
			<path class="st70" d="M467.5,421.3c0,0-0.2,6.6,0.8,7c0.9,0.4,4.5-1.9,6.1-4.2c1.6-2.3-2-7.5-2.5-10.4c-0.2-1.2-3-3.4-4.3-2.8
				c-1.3,0.6-2.3,2.2-2.3,2.2S468.5,415.5,467.5,421.3z"/>
			<g>
				<path class="st71" d="M465.1,413.2c0,0,1.2,2.2,1.8,4c0.6,1.7,0.7,6.6,1.1,6.9c0.4,0.3,3.4-1.2,3.8-3c0.4-1.8-0.8-5.4-2-7.3
					c-1.2-1.9-2.3-2.8-2.3-2.8S465.4,411.3,465.1,413.2z"/>
			</g>
			<polygon class="st70" points="471.7,413.7 474.9,418.4 474.3,418.8 471.9,415.2 			"/>
			<path class="st71" d="M460.2,362.1c0,0,1.6,2.6,0,4.6c-1.6,1.9-12.1,7.2-12,10.3c0.1,3.1,2,7.8,2.7,9c0.7,1.2,3.2,6.2,4.6,9.2
				c1.3,2.9,9,17,10.5,20.2c1.5,3.2,0.6-12.7,0.6-12.7l-7.7-22.5l17.9-17.5C476.8,362.7,474.7,357.8,460.2,362.1z"/>
			<path class="st72" d="M467,332.3c0,0-5,1.1-7,2.3c-2,1.2-6.4,6.5-6.4,8.7s19.2,4.4,19.2,4.4l3.6,13.3c0,0,9.7-2.4,10.8-4.3
				c1.2-2-3.8-15.9-4.5-18.9c-0.7-2.9-4.3-4.9-8.4-5.5C470.5,331.7,467,332.3,467,332.3z"/>
			<path class="st6" d="M478.8,362.5c0,0-0.3,2.3,0.6,3.2c0.9,1,5.2,6.6,2.9,12.1c-2.1,5.1-6.1,5-6.1,5H470c0,0,1.8,9.1,1.2,15.1
				c-0.6,6-3.3,19.7-3.4,20.4c-0.1,0.7-2.6,2.9-3.4,1.8c0,0-0.1-8.3-0.5-11.4c-0.4-3.1-2.1-15.6-2.6-17.4c-0.5-1.8-3.6-7.4-3.6-8
				c0-0.6-3-9.6,3.5-11.9C467.8,369,470.2,362.6,478.8,362.5z"/>
			<path class="st73" d="M461.4,426.4c0,0-4.3,5-3.8,5.9c0.5,0.9,4.7,1.4,7.3,0.6c2.6-0.8,3.2-7.1,4.6-9.7c0.6-1.1-0.2-4.5-1.6-4.9
				c-1.4-0.4-3.2,0.3-3.2,0.3S465.8,422.6,461.4,426.4z"/>
			<g>
				<path class="st6" d="M464.6,418.6c0,0-0.5,2.5-1.1,4.2c-0.6,1.7-3.6,5.5-3.5,6c0.1,0.5,3.3,1.2,4.8,0c1.4-1.2,2.8-4.7,3.1-6.9
					c0.3-2.2,0-3.7,0-3.7S466,417.3,464.6,418.6z"/>
			</g>
			<polygon class="st73" points="469.5,423.2 469,428.8 468.3,428.8 468.7,424.4 			"/>
			<path class="st72" d="M482.3,377.8c-2,5.1-6.1,5-6.1,5H470c0,0-2.6-4.1-8.9-4.8c-1.4-0.2-3-0.1-4.8,0.1c0,0,0,0-0.1,0
				c-8.4,1.2-6.8,4.3-6.8,4.4c-0.7-1.7-1.4-4.4-1.3-5.9c0.8-6.7,10.4-8.1,12-10c1.6-1.9,0-4.6,0-4.6c14.4-4.3,16.6,0.6,16.6,0.6
				c0.6-0.1,2.3-1,2.9-1c0,0,0.7,1.6,1.2,3C481.4,365.9,484.4,372.3,482.3,377.8z"/>
			<polygon class="st74" points="476.3,341.1 478.5,361 450.3,361 448.2,341.1 			"/>
			<rect x="476" y="359.2" class="st74" width="4.7" height="1.8"/>
			<rect x="431" y="361" class="st75" width="89.5" height="2.7"/>
			<path class="st6" d="M470.2,310.6c0,0,6.3,1.9,5.4,10.6c-0.9,8.7-5,8.3-5.4,8.4c-0.4,0.1-5.3,0.4-6.8-10.2
				C461.8,308.7,470.2,310.6,470.2,310.6z"/>
			<path class="st6" d="M473.2,328c0,0-0.3,2.9,0.2,4.7c0.6,1.8-7.3,1.8-7.3,0.4c0-1.7,0.8-3.1,0.1-6
				C465.3,324.2,473.2,328,473.2,328z"/>
			<path class="st69" d="M468.5,314.5c0,0,3.4,5.4,7,6.7c0,0,2-9.1-6.2-11c-8.1-1.9-6.8,9.2-6.2,12.2
				C463.2,322.4,464.8,318,468.5,314.5z"/>
			<path class="st14" d="M467,328.3c0,0,2.5,2.6,5.7,0.3c0,0-0.3,1.7-2.6,1.9C467.9,330.7,467,328.3,467,328.3z"/>
			<path class="st76" d="M463.9,313.7c0,0,1.8-3.5,4.8-3.6c3-0.2,4.9,2.5,4.9,2.5s-1.2-3-4.8-3C465.1,309.5,463.9,313.7,463.9,313.7
				z"/>
			<path class="st6" d="M474.2,332.2c0,0-0.1,6-4.9,6.2c-4.8,0.2-3.8-5.8-3.8-5.8S469,331.2,474.2,332.2z"/>
			<rect x="518.5" y="363.7" class="st77" width="2" height="68.2"/>
			<rect x="431" y="363.7" class="st77" width="2" height="68.2"/>
		</g>
		<g>
			<path class="st22" d="M358,375.6c0,0-1.5,1.3-2.9,3.4c-1.4,2-5,2.2-5.1,5c-0.2,2.8,4.9,2.9,7.6,2c2.7-0.9,3.1-3.6,4.7-4.3
				c1.6-0.7,2.5-1.2,2.3-2.6c-0.1-1.3-1-3.5-1-3.5s-1,0.3-1.6,0.4C361.4,376,359.4,376,358,375.6z"/>
			<path class="st78" d="M376.3,299.8c0,0-1,6.1-1.8,10.1l0,0c-0.3,1.6-0.6,2.9-0.8,3.3c-0.2,0.5-2.2,2.6-4.5,5
				c-4.1,4.2-9.6,9.6-9.6,9.6l-2.1-4c0,0,4.8-5.7,8.1-9.5c1.5-1.8,2.7-3.1,2.9-3.3c0.7-0.6,1.5-6.7,2.6-11.6c1.1-5,3.4-7.7,3.4-7.7
				L376.3,299.8z"/>
			<path class="st6" d="M369.1,318.3c-4.1,4.2-9.6,9.6-9.6,9.6l-2.1-4c0,0,4.8-5.7,8.1-9.5C366.5,314.8,368.4,316,369.1,318.3z"/>
			<g>
				<path class="st22" d="M395.6,373.9c0,0,1.4,1.5,2.2,2.5c0.8,0.9,4,2.6,4,5.4c0,3-2.3,2.8-4.4,2.6c-2.1-0.1-3.8-1.6-4.7-3.3
					c-0.9-1.7-3.2-2.2-3.4-3.5c-0.2-1.4,1.1-3.9,1.1-3.9L395.6,373.9z"/>
			</g>
			<path class="st79" d="M390.7,371.2l-0.3,2.6c0,0,4.4,1.9,5.2,0.1l-0.2-2.3L390.7,371.2z"/>
			<path class="st79" d="M358.2,373.7l-0.2,1.9c0,0,2.6,0.9,5.6-0.1l0.1-1.7L358.2,373.7z"/>
			<path class="st78" d="M395.8,327c0.2,0.5-28,0-28,0s7.8-5.7,8.3-7.2c0.5-1.5-2-10.6-2.3-13.6c-0.3-2.4-0.9-13,0.6-14.6
				c1.6-1.7,7.5-3.5,7.5-3.5l8.6,0.3c0,0,1.4,0.3,2.4,0.8c1,0.5,6.8,2.5,7.7,5.4c0.9,2.9-5.8,12.2-5.8,12.2s0,0.4,0,1.1l0,0
				c0,0.9-0.1,2.3-0.1,3.8c0,1.9-0.1,4.1-0.1,5.7C394.7,321.1,395.7,326.5,395.8,327z"/>
			<path class="st72" d="M395.8,327c0,0,3.8,5.6,3.9,9.5c0.1,3.8-1.4,14.5-1.5,16.6c-0.1,2.1-2.1,19.7-2.1,19.7s-1.5,1.4-6.1-0.4
				c0,0-1-16.7-1.1-18.5c-0.1-1.8-0.1-10-1.1-11.2c-1-1.2-7.3-4.9-8.1-5.6c-0.8-0.7-15,2.7-16.4,3.1c-3.8,1-2.1,7.7-1.2,10.7
				c1.4,5,2.7,23.1,2.7,23.1s-2.7,1.2-7.3,0.2c0,0-9-32.7-9.3-35.9c-0.3-3.3-0.4-8.6,21.7-12.7L395.8,327z"/>
			<path class="st6" d="M384.3,269.6c0,0-7.4-1.7-5.7,7.7c1.7,9.4,3.5,10.1,8,8.2c4.5-1.9,4.1-7.9,4.3-10.9
				C391.1,271.6,386.7,269.7,384.3,269.6z"/>
			<path class="st6" d="M382.3,290.6c0,0,3.3,3.5,8.5,0.3c0,0-1.2-7.6-0.6-11.3c0.6-3.7-6.8,5.7-6.8,5.7c0.1,0.1,0.2,0.4,0.2,0.9
				c0,0.4,0,1-0.1,1.5C383.4,289,383,290.3,382.3,290.6z"/>
			<path class="st6" d="M388.3,276c0.1-0.8,1.7-1.1,1.9,0.1c0.1,1.2-0.7,3.4-1.4,3.2C388.2,279.1,388.1,277.2,388.3,276z"/>
			<path class="st80" d="M390.5,279.4c0,0-0.2-2.9-1.3-3c-1.1-0.1-1.2,1.1-1.2,1.1l-1.1,0.2c0,0,0.3-2.6-0.7-3
				c-1.1-0.5-7,1.4-7.8,0.7c-0.9-0.8-0.5-6,1.1-6.7c1.6-0.7,5.9-2.3,9-0.2c0,0,2.5-0.3,2.8,1.7C391.6,272,391.1,277.9,390.5,279.4z"
				/>
			<path class="st14" d="M383.6,287.8c5.4-1.7,5.8-4.9,5.8-4.9c-1.8,3-5.7,3.4-5.7,3.4C383.7,286.7,383.6,287.2,383.6,287.8z"/>
			<path class="st6" d="M393,289.3c0,0-3.9,7.8-10.3,7.3c-6.4-0.5-1.1-8.4-0.8-8.4C382.2,288.1,388.5,286.6,393,289.3z"/>
			<path class="st78" d="M364.6,326.6c0,0,19.5,2.4,31.3,0.4l-22.5-2.8C373.3,324.2,373.1,324.8,364.6,326.6z"/>
			<path class="st6" d="M379.1,323.3l-1.5,0.7c0,0,0.3,2.3,1.1,3l1.6-0.4C380.4,326.6,380.1,324.1,379.1,323.3z"/>
			<path class="st78" d="M401.6,318.6c-0.3,0.3-4.1,1.9-8.4,3.5l0,0c-5.9,2.3-12.6,4.4-12.6,4.4l-1.5-3.3c0,0,7-3.8,11.7-6.5
				c2.2-1.3,3.9-2.3,4.2-2.5c0.8-0.7,1-1.9,0.4-3.9c-0.6-2-1.8-11.3-2-12.4c-0.1-1.1,0.4-4,3.1-4.1c2.7-0.1,4.1,0.6,4.1,0.6
				s0.7,0.3,1.2,6.9C402.3,308,402.3,317.8,401.6,318.6z"/>
			<path class="st81" d="M394.9,308L394.9,308c0,0.9-0.1,2.3-0.1,3.8c-2.6-6.5-1.1-11.6-1.1-11.7C393.4,301.8,394.8,307.9,394.9,308
				z"/>
			<path class="st81" d="M374.5,309.9L374.5,309.9c-0.3,1.6-0.6,2.9-0.8,3.3c-0.9-4.4-0.1-10-0.1-10
				C373.7,306,374.5,309.9,374.5,309.9z"/>
			<path class="st6" d="M393.2,322.1L393.2,322.1c-5.9,2.3-12.8,4.5-12.8,4.5l-1.3-3.3c0,0,7-3.8,11.7-6.5
				C390.8,316.9,392.5,317.7,393.2,322.1z"/>
			<polygon class="st82" points="378.7,326.8 351,326.4 365,333.5 			"/>
			<polygon class="st83" points="365,333.5 378.7,328.2 378.7,326.8 363.9,332.2 			"/>
			<g>
				<path class="st6" d="M378,324.1c0,0-1.7-0.3-2.9-0.5c-0.9-0.2-3.2,0.1-3.8,0.7c-0.6,0.6-2.4,4.7-2.8,5c-0.4,0.3,0.2,0.8,0.8,0.5
					c0,0,0.6,1.8,2,1.1c1.4-0.7,2.4-2.2,3.1-2.4c0.7-0.3,5-1.6,5-1.6S379.1,323.7,378,324.1z"/>
			</g>
			<g>
				<path class="st6" d="M371.7,324c0,0-1.1,0.5-1.4,0.8c-0.3,0.2-1.5,1.1-1.7,1.3c-0.3,0.2,0.4,0.8,2.5-0.1
					C373.2,325,371.7,324,371.7,324z"/>
			</g>
			<polygon class="st84" points="365,333.5 356.8,311.1 330.2,311.5 338.1,332.2 			"/>
			
				<ellipse transform="matrix(0.8944 -0.4472 0.4472 0.8944 -107.4406 188.8249)" class="st77" cx="346.3" cy="322" rx="2.3" ry="3.3"/>
		</g>
	</g>
</g>
</svg>
