<?xml version="1.0" encoding="UTF-8"?>
<svg width="768px" height="787px" viewBox="0 0 768 787" version="1.1" xmlns="http://www.w3.org/2000/svg" xmlns:xlink="http://www.w3.org/1999/xlink">
    <!-- Generator: Sketch 51.2 (57519) - http://www.bohemiancoding.com/sketch -->
    <title>Group</title>
    <desc>Created with Sketch.</desc>
    <defs>
        <path d="M277.124969,185.029248 C258.889303,175.781595 238,176.741401 238,209.938493 L238,577.224172 C238,607.572316 260.41029,612.35611 277.124969,602.133417 L584.510011,415.61116 C597.16333,403.438385 597.16333,383.724279 584.510011,371.551505 L277.124969,185.029248 Z" id="path-1"></path>
        <filter x="-1.4%" y="-0.9%" width="104.5%" height="103.7%" filterUnits="objectBoundingBox" id="filter-2">
            <feOffset dx="3" dy="4" in="SourceAlpha" result="shadowOffsetOuter1"></feOffset>
            <feGaussianBlur stdDeviation="2" in="shadowOffsetOuter1" result="shadowBlurOuter1"></feGaussianBlur>
            <feColorMatrix values="0 0 0 0 0.277157738   0 0 0 0 0.275462684   0 0 0 0 0.275462684  0 0 0 0.5 0" type="matrix" in="shadowBlurOuter1"></feColorMatrix>
        </filter>
        <filter x="-1.7%" y="-1.2%" width="105.1%" height="104.2%" filterUnits="objectBoundingBox" id="filter-3">
            <feGaussianBlur stdDeviation="1.5" in="SourceAlpha" result="shadowBlurInner1"></feGaussianBlur>
            <feOffset dx="5" dy="-7" in="shadowBlurInner1" result="shadowOffsetInner1"></feOffset>
            <feComposite in="shadowOffsetInner1" in2="SourceAlpha" operator="arithmetic" k2="-1" k3="1" result="shadowInnerInner1"></feComposite>
            <feColorMatrix values="0 0 0 0 0   0 0 0 0 0   0 0 0 0 0  0 0 0 0.5 0" type="matrix" in="shadowInnerInner1"></feColorMatrix>
        </filter>
    </defs>
    <g id="Page-1" stroke="none" stroke-width="1" fill="none" fill-rule="evenodd">
        <g id="LCO-logo-white" transform="translate(-128.000000, -119.000000)">
            <g id="Group" transform="translate(128.000000, 119.000000)">
                <g id="Fill-126">
                    <use fill="black" fill-opacity="1" filter="url(#filter-2)" xlink:href="#path-1"></use>
                    <use fill="#21E43C" fill-rule="evenodd" xlink:href="#path-1"></use>
                    <use fill="black" fill-opacity="1" filter="url(#filter-3)" xlink:href="#path-1"></use>
                </g>
                <path d="M117.920354,288.081986 C117.920354,317.768817 113.989715,340.033606 106.128319,354.877021 C98.2669223,369.720436 83.7537931,382.897556 62.5884956,394.408776 C83.1490704,405.314142 97.5110211,418.794185 105.674779,434.849307 C113.838536,450.90443 117.920354,473.169219 117.920354,501.644342 L117.920354,647.957275 C117.920354,681.279227 123.665134,703.241094 135.154867,713.843533 C146.6446,724.445973 169.926078,729.747113 205,729.747113 L205,787 L178.69469,787 C132.735758,787 100.081218,776.852103 80.7300885,756.556005 C61.3789593,736.259906 51.7035398,701.878225 51.7035398,653.409931 L51.7035398,503.461894 C51.7035398,477.410185 47.7729007,458.023158 39.9115044,445.300231 C32.0501082,432.577304 18.7464064,423.792557 0,418.945727 L0,365.327945 C34.4691989,355.634286 51.7035398,328.674201 51.7035398,284.446882 L51.7035398,124.502309 C51.7035398,80.2749906 61.8324946,48.4681493 82.090708,29.0808314 C102.348921,9.69351353 134.852284,0 179.60177,0 L205,0 L205,57.2528868 C169.926078,57.8587405 146.6446,63.3113419 135.154867,73.6108545 C123.665134,83.9103671 117.920354,104.812006 117.920354,136.316397 L117.920354,288.081986 Z" id="{" fill="#FFFFFF"></path>
                <path d="M680.920354,288.081986 C680.920354,317.768817 676.989715,340.033606 669.128319,354.877021 C661.266922,369.720436 646.753793,382.897556 625.588496,394.408776 C646.14907,405.314142 660.511021,418.794185 668.674779,434.849307 C676.838536,450.90443 680.920354,473.169219 680.920354,501.644342 L680.920354,647.957275 C680.920354,681.279227 686.665134,703.241094 698.154867,713.843533 C709.6446,724.445973 732.926078,729.747113 768,729.747113 L768,787 L741.69469,787 C695.735758,787 663.081218,776.852103 643.730088,756.556005 C624.378959,736.259906 614.70354,701.878225 614.70354,653.409931 L614.70354,503.461894 C614.70354,477.410185 610.772901,458.023158 602.911504,445.300231 C595.050108,432.577304 581.746406,423.792557 563,418.945727 L563,365.327945 C597.469199,355.634286 614.70354,328.674201 614.70354,284.446882 L614.70354,124.502309 C614.70354,80.2749906 624.832495,48.4681493 645.090708,29.0808314 C665.348921,9.69351353 697.852284,0 742.60177,0 L768,0 L768,57.2528868 C732.926078,57.8587405 709.6446,63.3113419 698.154867,73.6108545 C686.665134,83.9103671 680.920354,104.812006 680.920354,136.316397 L680.920354,288.081986 Z" id="{-copy" fill="#FFFFFF" transform="translate(665.500000, 393.500000) rotate(-180.000000) translate(-665.500000, -393.500000) "></path>
            </g>
        </g>
    </g>
</svg>